<svg width="740" height="228" viewBox="0 0 740 228" fill="none" xmlns="http://www.w3.org/2000/svg">
<g clip-path="url(#clip0_18_11)">
<rect width="740" height="228" rx="20" fill="#111111"/>
<path d="M608 114H630V217H608V114Z" fill="url(#paint0_linear_18_11)"/>
<path d="M-473.558 -79.0926L-425.886 -84.6951L-409.956 50.8558L-457.627 56.4584L-473.558 -79.0926Z" fill="url(#paint1_linear_18_11)"/>
<path d="M13.7499 420.273C3.09852 640.349 -179.739 809.699 -394.629 798.526C-609.519 787.352 -775.087 599.888 -764.436 379.812C-753.785 159.735 -570.947 -9.61398 -356.057 1.5591C-141.167 12.7322 24.4012 200.197 13.7499 420.273Z" fill="url(#paint2_linear_18_11)"/>
<path d="M875.113 539.901C865.341 741.808 712.985 897.976 534.816 888.712C356.647 879.449 220.135 708.261 229.907 506.354C239.679 304.447 392.035 148.279 570.204 157.543C748.373 166.807 884.885 337.994 875.113 539.901Z" fill="url(#paint3_linear_18_11)"/>
<path d="M454.09 486.224C444.188 690.816 291.727 849.161 113.558 839.897C-64.6112 830.633 -204.323 629.153 -194.421 424.561C-184.519 219.97 -57.3317 105.771 157.834 105.771C373 105.771 716.5 297 454.09 486.224Z" fill="url(#paint4_linear_18_11)"/>
<g clip-path="url(#clip1_18_11)">
<rect width="46" height="78" rx="9" transform="matrix(-1 0 0 1 642 50)" fill="#D9D9D9"/>
<rect width="19" height="27" rx="9" transform="matrix(-1 0 0 1 629 28)" fill="#D9D9D9"/>
<rect width="104.679" height="17.2666" transform="matrix(-0.980546 -0.196288 -0.196288 0.980546 645.114 25.5471)" fill="#4F4F4F"/>
<rect width="188" height="36" rx="9" transform="matrix(-1 0 0 1 807 72)" fill="#D9D9D9"/>
</g>
<path d="M106.58 51C105.943 48.6818 105.011 46.5114 103.784 44.4886C102.557 42.4432 101.034 40.6591 99.2159 39.1364C97.4205 37.5909 95.3409 36.3864 92.9773 35.5227C90.6364 34.6591 88.0227 34.2273 85.1364 34.2273C80.5909 34.2273 76.5227 35.4091 72.9318 37.7727C69.3409 40.1364 66.5 43.5455 64.4091 48C62.3409 52.4545 61.3068 57.8182 61.3068 64.0909C61.3068 70.3409 62.3523 75.6932 64.4432 80.1477C66.5341 84.6023 69.3977 88.0227 73.0341 90.4091C76.6932 92.7727 80.875 93.9545 85.5795 93.9545C89.875 93.9545 93.6705 93 96.9659 91.0909C100.261 89.1818 102.83 86.4545 104.67 82.9091C106.534 79.3636 107.443 75.1477 107.398 70.2614L109.443 70.9091H87.0795V65.1818H113.602V70.9091C113.602 76.8636 112.398 82.0114 109.989 86.3523C107.58 90.6932 104.273 94.0455 100.068 96.4091C95.8636 98.7727 91.0341 99.9545 85.5795 99.9545C79.4886 99.9545 74.1591 98.4886 69.5909 95.5568C65.0227 92.6023 61.4659 88.4432 58.9205 83.0795C56.3977 77.6932 55.1364 71.3636 55.1364 64.0909C55.1364 58.6136 55.8636 53.6705 57.3182 49.2614C58.7727 44.8523 60.8295 41.0795 63.4886 37.9432C66.1705 34.8068 69.3409 32.4091 73 30.75C76.6591 29.0682 80.7045 28.2273 85.1364 28.2273C88.9545 28.2273 92.4432 28.8295 95.6023 30.0341C98.7841 31.2386 101.58 32.8977 103.989 35.0114C106.42 37.1023 108.409 39.5227 109.955 42.2727C111.523 45 112.58 47.9091 113.125 51H106.58ZM149.338 100.091C144.452 100.091 140.224 98.9545 136.656 96.6818C133.088 94.3864 130.327 91.2159 128.372 87.1705C126.44 83.1023 125.474 78.4205 125.474 73.125C125.474 67.8523 126.44 63.1705 128.372 59.0795C130.327 54.9659 133.02 51.75 136.452 49.4318C139.906 47.0909 143.895 45.9205 148.418 45.9205C151.259 45.9205 153.997 46.4432 156.634 47.4886C159.27 48.5114 161.634 50.0909 163.724 52.2273C165.838 54.3409 167.509 57.0114 168.736 60.2386C169.963 63.4432 170.577 67.2386 170.577 71.625V74.625H129.668V69.2727H164.372C164.372 65.9091 163.69 62.8864 162.327 60.2045C160.986 57.5 159.111 55.3636 156.702 53.7955C154.315 52.2273 151.554 51.4432 148.418 51.4432C145.099 51.4432 142.179 52.3295 139.656 54.1023C137.134 55.875 135.156 58.2159 133.724 61.125C132.315 64.0341 131.599 67.2159 131.577 70.6705V73.875C131.577 78.0341 132.293 81.6705 133.724 84.7841C135.179 87.875 137.236 90.2727 139.895 91.9773C142.554 93.6818 145.702 94.5341 149.338 94.5341C151.815 94.5341 153.986 94.1477 155.849 93.375C157.736 92.6023 159.315 91.5682 160.588 90.2727C161.884 88.9545 162.861 87.5114 163.52 85.9432L169.281 87.8182C168.486 90.0227 167.179 92.0568 165.361 93.9205C163.565 95.7841 161.315 97.2841 158.611 98.4205C155.929 99.5341 152.838 100.091 149.338 100.091ZM204.574 46.6364V51.9205H179.585V46.6364H204.574ZM187.392 34.0909H193.494V85.3295C193.494 87.5114 193.869 89.2273 194.619 90.4773C195.369 91.7045 196.347 92.5795 197.551 93.1023C198.756 93.6023 200.04 93.8523 201.403 93.8523C202.199 93.8523 202.881 93.8068 203.449 93.7159C204.017 93.6023 204.517 93.4886 204.949 93.375L206.244 98.8636C205.653 99.0909 204.926 99.2955 204.062 99.4773C203.199 99.6818 202.131 99.7841 200.858 99.7841C198.631 99.7841 196.483 99.2955 194.415 98.3182C192.369 97.3409 190.688 95.8864 189.369 93.9545C188.051 92.0227 187.392 89.625 187.392 86.7614V34.0909ZM245.423 99V46.6364H251.526V99H245.423ZM248.526 37.6364C247.276 37.6364 246.207 37.2159 245.321 36.375C244.435 35.5114 243.991 34.4773 243.991 33.2727C243.991 32.0682 244.435 31.0455 245.321 30.2045C246.207 29.3409 247.276 28.9091 248.526 28.9091C249.776 28.9091 250.844 29.3409 251.73 30.2045C252.616 31.0455 253.06 32.0682 253.06 33.2727C253.06 34.4773 252.616 35.5114 251.73 36.375C250.844 37.2159 249.776 37.6364 248.526 37.6364ZM288.199 46.6364V51.9205H263.21V46.6364H288.199ZM271.017 34.0909H277.119V85.3295C277.119 87.5114 277.494 89.2273 278.244 90.4773C278.994 91.7045 279.972 92.5795 281.176 93.1023C282.381 93.6023 283.665 93.8523 285.028 93.8523C285.824 93.8523 286.506 93.8068 287.074 93.7159C287.642 93.6023 288.142 93.4886 288.574 93.375L289.869 98.8636C289.278 99.0909 288.551 99.2955 287.688 99.4773C286.824 99.6818 285.756 99.7841 284.483 99.7841C282.256 99.7841 280.108 99.2955 278.04 98.3182C275.994 97.3409 274.313 95.8864 272.994 93.9545C271.676 92.0227 271.017 89.625 271.017 86.7614V34.0909ZM349.332 100.091C344.81 100.091 340.81 98.9432 337.332 96.6477C333.878 94.3523 331.173 91.1818 329.219 87.1364C327.264 83.0682 326.287 78.375 326.287 73.0568C326.287 67.6932 327.264 62.9773 329.219 58.9091C331.173 54.8182 333.878 51.6364 337.332 49.3636C340.81 47.0682 344.81 45.9205 349.332 45.9205C353.855 45.9205 357.844 47.0682 361.298 49.3636C364.753 51.6591 367.457 54.8409 369.412 58.9091C371.389 62.9773 372.378 67.6932 372.378 73.0568C372.378 78.375 371.401 83.0682 369.446 87.1364C367.491 91.1818 364.776 94.3523 361.298 96.6477C357.844 98.9432 353.855 100.091 349.332 100.091ZM349.332 94.5341C352.969 94.5341 356.048 93.5568 358.571 91.6023C361.094 89.6477 363.003 87.0455 364.298 83.7955C365.616 80.5455 366.276 76.9659 366.276 73.0568C366.276 69.1477 365.616 65.5568 364.298 62.2841C363.003 59.0114 361.094 56.3864 358.571 54.4091C356.048 52.4318 352.969 51.4432 349.332 51.4432C345.719 51.4432 342.639 52.4318 340.094 54.4091C337.571 56.3864 335.651 59.0114 334.332 62.2841C333.037 65.5568 332.389 69.1477 332.389 73.0568C332.389 76.9659 333.037 80.5455 334.332 83.7955C335.651 87.0455 337.571 89.6477 340.094 91.6023C342.616 93.5568 345.696 94.5341 349.332 94.5341ZM391.767 66.2727V99H385.699V46.6364H391.597V54.8523H392.142C393.369 52.1705 395.278 50.0227 397.869 48.4091C400.483 46.7727 403.71 45.9545 407.551 45.9545C411.074 45.9545 414.165 46.6932 416.824 48.1705C419.506 49.625 421.585 51.7727 423.062 54.6136C424.562 57.4545 425.312 60.9432 425.312 65.0795V99H419.244V65.4545C419.244 61.1591 418.04 57.7614 415.631 55.2614C413.244 52.7614 410.04 51.5114 406.017 51.5114C403.267 51.5114 400.824 52.1023 398.688 53.2841C396.551 54.4659 394.858 56.1705 393.608 58.3977C392.381 60.6023 391.767 63.2273 391.767 66.2727ZM52.4091 125.352V113.182H109.75V125.352H88.375V183H73.7841V125.352H52.4091ZM126.727 183.989C123.386 183.989 120.409 183.409 117.795 182.25C115.182 181.068 113.114 179.33 111.591 177.034C110.091 174.716 109.341 171.83 109.341 168.375C109.341 165.466 109.875 163.023 110.943 161.045C112.011 159.068 113.466 157.477 115.307 156.273C117.148 155.068 119.239 154.159 121.58 153.545C123.943 152.932 126.42 152.5 129.011 152.25C132.057 151.932 134.511 151.636 136.375 151.364C138.239 151.068 139.591 150.636 140.432 150.068C141.273 149.5 141.693 148.659 141.693 147.545V147.341C141.693 145.182 141.011 143.511 139.648 142.33C138.307 141.148 136.398 140.557 133.92 140.557C131.307 140.557 129.227 141.136 127.682 142.295C126.136 143.432 125.114 144.864 124.614 146.591L111.182 145.5C111.864 142.318 113.205 139.568 115.205 137.25C117.205 134.909 119.784 133.114 122.943 131.864C126.125 130.591 129.807 129.955 133.989 129.955C136.898 129.955 139.682 130.295 142.341 130.977C145.023 131.659 147.398 132.716 149.466 134.148C151.557 135.58 153.205 137.42 154.409 139.67C155.614 141.898 156.216 144.568 156.216 147.682V183H142.443V175.739H142.034C141.193 177.375 140.068 178.818 138.659 180.068C137.25 181.295 135.557 182.261 133.58 182.966C131.602 183.648 129.318 183.989 126.727 183.989ZM130.886 173.966C133.023 173.966 134.909 173.545 136.545 172.705C138.182 171.841 139.466 170.682 140.398 169.227C141.33 167.773 141.795 166.125 141.795 164.284V158.727C141.341 159.023 140.716 159.295 139.92 159.545C139.148 159.773 138.273 159.989 137.295 160.193C136.318 160.375 135.341 160.545 134.364 160.705C133.386 160.841 132.5 160.966 131.705 161.08C130 161.33 128.511 161.727 127.239 162.273C125.966 162.818 124.977 163.557 124.273 164.489C123.568 165.398 123.216 166.534 123.216 167.898C123.216 169.875 123.932 171.386 125.364 172.432C126.818 173.455 128.659 173.966 130.886 173.966ZM167.483 202.636V130.636H181.801V139.432H182.449C183.085 138.023 184.006 136.591 185.21 135.136C186.438 133.659 188.028 132.432 189.983 131.455C191.96 130.455 194.415 129.955 197.347 129.955C201.165 129.955 204.688 130.955 207.915 132.955C211.142 134.932 213.722 137.92 215.653 141.92C217.585 145.898 218.551 150.886 218.551 156.886C218.551 162.727 217.608 167.659 215.722 171.682C213.858 175.682 211.313 178.716 208.085 180.784C204.881 182.83 201.29 183.852 197.312 183.852C194.494 183.852 192.097 183.386 190.119 182.455C188.165 181.523 186.562 180.352 185.312 178.943C184.062 177.511 183.108 176.068 182.449 174.614H182.006V202.636H167.483ZM181.699 156.818C181.699 159.932 182.131 162.648 182.994 164.966C183.858 167.284 185.108 169.091 186.744 170.386C188.381 171.659 190.369 172.295 192.71 172.295C195.074 172.295 197.074 171.648 198.71 170.352C200.347 169.034 201.585 167.216 202.426 164.898C203.29 162.557 203.722 159.864 203.722 156.818C203.722 153.795 203.301 151.136 202.46 148.841C201.619 146.545 200.381 144.75 198.744 143.455C197.108 142.159 195.097 141.511 192.71 141.511C190.347 141.511 188.347 142.136 186.71 143.386C185.097 144.636 183.858 146.409 182.994 148.705C182.131 151 181.699 153.705 181.699 156.818ZM228.233 183V130.636H242.312V139.773H242.858C243.813 136.523 245.415 134.068 247.665 132.409C249.915 130.727 252.506 129.886 255.438 129.886C256.165 129.886 256.949 129.932 257.79 130.023C258.631 130.114 259.369 130.239 260.006 130.398V143.284C259.324 143.08 258.381 142.898 257.176 142.739C255.972 142.58 254.869 142.5 253.869 142.5C251.733 142.5 249.824 142.966 248.142 143.898C246.483 144.807 245.165 146.08 244.188 147.716C243.233 149.352 242.756 151.239 242.756 153.375V183H228.233ZM288.736 184.023C283.44 184.023 278.861 182.898 274.997 180.648C271.156 178.375 268.19 175.216 266.099 171.17C264.009 167.102 262.963 162.386 262.963 157.023C262.963 151.614 264.009 146.886 266.099 142.841C268.19 138.773 271.156 135.614 274.997 133.364C278.861 131.091 283.44 129.955 288.736 129.955C294.031 129.955 298.599 131.091 302.44 133.364C306.304 135.614 309.281 138.773 311.372 142.841C313.463 146.886 314.509 151.614 314.509 157.023C314.509 162.386 313.463 167.102 311.372 171.17C309.281 175.216 306.304 178.375 302.44 180.648C298.599 182.898 294.031 184.023 288.736 184.023ZM288.804 172.773C291.213 172.773 293.224 172.091 294.838 170.727C296.452 169.341 297.668 167.455 298.486 165.068C299.327 162.682 299.747 159.966 299.747 156.92C299.747 153.875 299.327 151.159 298.486 148.773C297.668 146.386 296.452 144.5 294.838 143.114C293.224 141.727 291.213 141.034 288.804 141.034C286.372 141.034 284.327 141.727 282.668 143.114C281.031 144.5 279.793 146.386 278.952 148.773C278.134 151.159 277.724 153.875 277.724 156.92C277.724 159.966 278.134 162.682 278.952 165.068C279.793 167.455 281.031 169.341 282.668 170.727C284.327 172.091 286.372 172.773 288.804 172.773ZM347.611 184.023C342.315 184.023 337.736 182.898 333.872 180.648C330.031 178.375 327.065 175.216 324.974 171.17C322.884 167.102 321.838 162.386 321.838 157.023C321.838 151.614 322.884 146.886 324.974 142.841C327.065 138.773 330.031 135.614 333.872 133.364C337.736 131.091 342.315 129.955 347.611 129.955C352.906 129.955 357.474 131.091 361.315 133.364C365.179 135.614 368.156 138.773 370.247 142.841C372.338 146.886 373.384 151.614 373.384 157.023C373.384 162.386 372.338 167.102 370.247 171.17C368.156 175.216 365.179 178.375 361.315 180.648C357.474 182.898 352.906 184.023 347.611 184.023ZM347.679 172.773C350.088 172.773 352.099 172.091 353.713 170.727C355.327 169.341 356.543 167.455 357.361 165.068C358.202 162.682 358.622 159.966 358.622 156.92C358.622 153.875 358.202 151.159 357.361 148.773C356.543 146.386 355.327 144.5 353.713 143.114C352.099 141.727 350.088 141.034 347.679 141.034C345.247 141.034 343.202 141.727 341.543 143.114C339.906 144.5 338.668 146.386 337.827 148.773C337.009 151.159 336.599 153.875 336.599 156.92C336.599 159.966 337.009 162.682 337.827 165.068C338.668 167.455 339.906 169.341 341.543 170.727C343.202 172.091 345.247 172.773 347.679 172.773ZM382.827 183V130.636H396.668V139.875H397.281C398.372 136.807 400.19 134.386 402.736 132.614C405.281 130.841 408.327 129.955 411.872 129.955C415.463 129.955 418.52 130.852 421.043 132.648C423.565 134.42 425.247 136.83 426.088 139.875H426.634C427.702 136.875 429.634 134.477 432.429 132.682C435.247 130.864 438.577 129.955 442.418 129.955C447.304 129.955 451.27 131.511 454.315 134.625C457.384 137.716 458.918 142.102 458.918 147.784V183H444.429V150.648C444.429 147.739 443.656 145.557 442.111 144.102C440.565 142.648 438.634 141.92 436.315 141.92C433.679 141.92 431.622 142.761 430.145 144.443C428.668 146.102 427.929 148.295 427.929 151.023V183H413.849V150.341C413.849 147.773 413.111 145.727 411.634 144.205C410.179 142.682 408.259 141.92 405.872 141.92C404.259 141.92 402.804 142.33 401.509 143.148C400.236 143.943 399.224 145.068 398.474 146.523C397.724 147.955 397.349 149.636 397.349 151.568V183H382.827ZM487.741 113.182L486.412 162.068H473.935L472.571 113.182H487.741ZM480.173 183.886C477.923 183.886 475.991 183.091 474.378 181.5C472.764 179.886 471.969 177.955 471.991 175.705C471.969 173.477 472.764 171.568 474.378 169.977C475.991 168.386 477.923 167.591 480.173 167.591C482.332 167.591 484.23 168.386 485.866 169.977C487.503 171.568 488.332 173.477 488.355 175.705C488.332 177.205 487.935 178.58 487.162 179.83C486.412 181.057 485.423 182.045 484.196 182.795C482.969 183.523 481.628 183.886 480.173 183.886Z" fill="white"/>
</g>
<defs>
<linearGradient id="paint0_linear_18_11" x1="626.526" y1="126.315" x2="627.068" y2="157.664" gradientUnits="userSpaceOnUse">
<stop stop-color="#A90154"/>
<stop offset="1" stop-color="#F62254"/>
</linearGradient>
<linearGradient id="paint1_linear_18_11" x1="76.4313" y1="24.0461" x2="32.8306" y2="862.612" gradientUnits="userSpaceOnUse">
<stop stop-color="#BB4040"/>
<stop offset="1" stop-color="#F421C6"/>
</linearGradient>
<linearGradient id="paint2_linear_18_11" x1="76.4313" y1="24.0461" x2="32.8306" y2="862.612" gradientUnits="userSpaceOnUse">
<stop stop-color="#BB4040"/>
<stop offset="1" stop-color="#F421C6"/>
</linearGradient>
<linearGradient id="paint3_linear_18_11" x1="76.4313" y1="24.0461" x2="32.8306" y2="862.612" gradientUnits="userSpaceOnUse">
<stop stop-color="#BB4040"/>
<stop offset="1" stop-color="#F421C6"/>
</linearGradient>
<linearGradient id="paint4_linear_18_11" x1="76.4313" y1="24.0461" x2="32.8306" y2="862.612" gradientUnits="userSpaceOnUse">
<stop stop-color="#BB4040"/>
<stop offset="1" stop-color="#F421C6"/>
</linearGradient>
<clipPath id="clip0_18_11">
<rect width="740" height="228" rx="20" fill="white"/>
</clipPath>
<clipPath id="clip1_18_11">
<rect width="244" height="243" fill="white" transform="matrix(-1 0 0 1 761 -15)"/>
</clipPath>
</defs>
</svg>
